<svg width="14" height="16" viewBox="0 0 14 16" fill="none" xmlns="http://www.w3.org/2000/svg">
<path id="Vector" d="M13.4092 13.6423L10.5438 8.67974L10.7438 8.62554C10.9689 8.56357 11.1663 8.42685 11.3035 8.23785C11.4407 8.04886 11.5095 7.81882 11.4987 7.58554L11.4548 6.54844L12.0935 5.75454C12.2398 5.57199 12.3196 5.34508 12.3197 5.11115C12.3199 4.87721 12.2404 4.65019 12.0944 4.46744L11.4479 3.65494L11.4987 2.63734C11.5097 2.4039 11.441 2.17366 11.3038 1.98446C11.1666 1.79527 10.9691 1.6584 10.7438 1.59634L9.74377 1.31894L9.18647 0.465538C9.05821 0.269899 8.8671 0.123819 8.64466 0.0513929C8.42222 -0.0210332 8.18173 -0.0154793 7.96287 0.0671384L7.00877 0.430438H7.00677C7.00197 0.430438 6.99017 0.425538 6.99117 0.430438L6.03707 0.0671384C5.81835 -0.0158187 5.57786 -0.0216493 5.35537 0.0506105C5.13288 0.12287 4.94171 0.268893 4.81347 0.464538L4.24117 1.32974L3.25587 1.59634C3.0307 1.6583 2.8333 1.79501 2.69611 1.98401C2.55892 2.173 2.49011 2.40305 2.50097 2.63634L2.54487 3.67344L1.90627 4.46644C1.75986 4.64893 1.67999 4.87585 1.67981 5.10981C1.67962 5.34377 1.75915 5.57082 1.90527 5.75354L2.55177 6.56604L2.50097 7.58474C2.48995 7.81818 2.55868 8.04842 2.69588 8.23761C2.83307 8.4268 3.03056 8.56368 3.25587 8.62574L3.45587 8.68104L0.590772 13.6423C0.541239 13.728 0.518238 13.8264 0.524682 13.9252C0.531126 14.0239 0.566725 14.1185 0.626972 14.197C0.687633 14.2747 0.769651 14.333 0.862962 14.3648C0.956274 14.3965 1.05682 14.4003 1.15227 14.3757L2.86517 13.9167L3.32317 15.6286C3.34868 15.7242 3.40197 15.8101 3.4763 15.8754C3.55063 15.9407 3.64266 15.9824 3.74074 15.9954C3.83882 16.0084 3.93854 15.992 4.02729 15.9482C4.11603 15.9045 4.1898 15.8354 4.23927 15.7497L6.99997 10.9697L9.76067 15.7497C9.80447 15.8258 9.86753 15.8889 9.94349 15.9328C10.0195 15.9767 10.1056 15.9998 10.1934 15.9997C10.3037 16.0005 10.4112 15.9644 10.4988 15.8971C10.5863 15.8299 10.6489 15.7354 10.6768 15.6286L11.1348 13.9167L12.8477 14.3757C12.9431 14.4001 13.0436 14.3962 13.1369 14.3645C13.2302 14.3328 13.3122 14.2746 13.373 14.197C13.4332 14.1185 13.4688 14.0239 13.4753 13.9252C13.4817 13.8264 13.4587 13.728 13.4092 13.6423ZM2.68457 5.09444L3.32457 4.30054C3.48204 4.10439 3.56222 3.85737 3.54997 3.60614L3.51757 2.56124L4.50487 2.29464C4.74669 2.22793 4.956 2.07557 5.09377 1.86594L5.68157 1.00074L6.63477 1.36404C6.86974 1.45334 7.1293 1.45334 7.36427 1.36404L8.34857 1.01144L8.90717 1.86594C9.04471 2.07626 9.25465 2.2288 9.49717 2.29464L10.5011 2.58764L10.45 3.60814C10.4381 3.85874 10.5183 4.10503 10.6756 4.30054L11.3156 5.12674L10.6756 5.92164C10.5181 6.11735 10.4378 6.36402 10.45 6.61494L10.4822 7.66084L9.49877 7.92654C9.25505 7.99212 9.04404 8.1452 8.90607 8.35654L8.31817 9.22084L7.36497 8.85754C7.24842 8.813 7.12474 8.79002 6.99997 8.78974C6.87543 8.7897 6.75195 8.81255 6.63567 8.85714L5.65137 9.21064L5.09277 8.35614C4.9558 8.14528 4.74563 7.99257 4.50277 7.92744L3.49897 7.63454L3.54997 6.61304C3.56184 6.36274 3.48158 6.11677 3.32437 5.92164L2.68457 5.09444ZM3.97747 14.2038L3.70207 13.1755C3.6663 13.0483 3.5823 12.9401 3.46794 12.8739C3.35358 12.8077 3.2179 12.7887 3.08977 12.821L2.05977 13.0974L4.37547 9.08624L4.81347 9.75624C4.90702 9.89927 5.03479 10.0167 5.18518 10.0979C5.33558 10.1791 5.50386 10.2214 5.67477 10.2211C5.79868 10.2214 5.92155 10.1985 6.03707 10.1537L6.39327 10.0205L3.97747 14.2038ZM10.91 12.821C10.7819 12.789 10.6463 12.8081 10.532 12.8743C10.4178 12.9405 10.3337 13.0485 10.2977 13.1755L10.0223 14.2038L7.60517 10.0183L7.96087 10.154C8.1797 10.2381 8.42072 10.2446 8.64376 10.1724C8.86679 10.1003 9.05834 9.95383 9.18647 9.75754L9.62727 9.09114L11.94 13.0974L10.91 12.821Z" fill="white"/>
</svg>
